<?xml version="1.0" encoding="UTF-8" standalone="no"?>
<svg
   xmlns:dc="http://purl.org/dc/elements/1.1/"
   xmlns:cc="http://creativecommons.org/ns#"
   xmlns:rdf="http://www.w3.org/1999/02/22-rdf-syntax-ns#"
   xmlns:svg="http://www.w3.org/2000/svg"
   xmlns="http://www.w3.org/2000/svg"
   xmlns:sodipodi="http://sodipodi.sourceforge.net/DTD/sodipodi-0.dtd"
   xmlns:inkscape="http://www.inkscape.org/namespaces/inkscape"
   inkscape:version="1.0 (4035a4fb49, 2020-05-01)"
   sodipodi:docname="logo-menu-2.svg"
   viewBox="0 0 228.82668 64.000186"
   height="64.000183"
   width="228.82668"
   xml:space="preserve"
   id="svg10"
   version="1.1"><metadata
     id="metadata16"><rdf:RDF><cc:Work
         rdf:about=""><dc:format>image/svg+xml</dc:format><dc:type
           rdf:resource="http://purl.org/dc/dcmitype/StillImage" /><dc:title></dc:title></cc:Work></rdf:RDF></metadata><defs
     id="defs14"><clipPath
       id="clipPath28"
       clipPathUnits="userSpaceOnUse"><path
         id="path26"
         d="M 0,1000 H 1000 V 0 H 0 Z" /></clipPath></defs><sodipodi:namedview
     inkscape:current-layer="g18"
     inkscape:window-maximized="1"
     inkscape:window-y="-8"
     inkscape:window-x="-8"
     inkscape:cy="165.29572"
     inkscape:cx="666.66663"
     inkscape:zoom="0.63825004"
     showgrid="false"
     id="namedview12"
     inkscape:window-height="1027"
     inkscape:window-width="1920"
     inkscape:pageshadow="2"
     inkscape:pageopacity="0"
     guidetolerance="10"
     gridtolerance="10"
     objecttolerance="10"
     borderopacity="1"
     bordercolor="#666666"
     pagecolor="#ffffff" /><g
     transform="matrix(1.3333333,0,0,-1.3333333,3.4881332e-8,1333.3333)"
     inkscape:label="isis-digital-logo (1)"
     inkscape:groupmode="layer"
     id="g18"><g
       transform="matrix(0.18160409,0,0,0.18160409,-8.4858325,890.46444)"
       id="g22"><g
         clip-path="url(#clipPath28)"
         id="g24"><g
           transform="translate(440.9795,472.3049)"
           id="g30"><path
             id="path32"
             style="fill:#ffffff;fill-opacity:1;fill-rule:nonzero;stroke:none"
             d="m 0,0 c -2.288,0 -3.294,0.823 -3.294,2.564 v 60.95 c 3.022,0.823 6.498,1.282 11.167,1.282 2.746,0 4.117,-1.006 4.117,-3.201 L 11.99,0 Z" /></g><g
           transform="translate(496.4561,489.3292)"
           id="g34"><path
             id="path36"
             style="fill:#ffffff;fill-opacity:1;fill-rule:nonzero;stroke:none"
             d="m 0,0 c 0,3.476 -2.377,5.399 -11.528,8.145 -12.907,3.842 -19.588,10.25 -19.588,20.773 0,11.074 8.88,19.219 22.516,19.219 10.981,0 18.579,-4.848 21.965,-10.433 0.731,-1.282 1.096,-2.288 1.096,-3.57 0,-1.464 -0.823,-2.835 -2.653,-3.752 -2.746,-1.371 -6.956,-2.288 -10.25,-2.56 -1.647,5.124 -5.123,7.87 -9.703,7.87 -4.482,0 -7.593,-2.564 -7.593,-6.405 0,-3.663 2.928,-6.316 12.173,-9.062 C 9.427,16.29 15.378,10.34 15.378,0.641 c 0,-10.891 -8.238,-18.764 -23.337,-18.764 -12.631,0 -20.869,4.758 -20.869,9.154 0,2.288 1.099,5.124 2.288,6.864 4.579,-2.288 10.891,-3.57 16.565,-3.57 C -3.111,-5.675 0,-3.57 0,0" /></g><g
           transform="translate(526.9609,472.3049)"
           id="g38"><path
             id="path40"
             style="fill:#ffffff;fill-opacity:1;fill-rule:nonzero;stroke:none"
             d="m 0,0 c -2.287,0 -3.293,0.823 -3.293,2.564 v 60.95 c 3.022,0.823 6.498,1.282 11.166,1.282 2.746,0 4.118,-1.006 4.118,-3.201 V 0 Z" /></g><g
           transform="translate(582.4385,489.3292)"
           id="g42"><path
             id="path44"
             style="fill:#ffffff;fill-opacity:1;fill-rule:nonzero;stroke:none"
             d="m 0,0 c 0,3.476 -2.378,5.399 -11.528,8.145 -12.908,3.842 -19.588,10.25 -19.588,20.773 0,11.074 8.879,19.219 22.516,19.219 10.981,0 18.578,-4.848 21.965,-10.433 0.731,-1.282 1.095,-2.288 1.095,-3.57 0,-1.464 -0.823,-2.835 -2.652,-3.752 -2.746,-1.371 -6.957,-2.288 -10.25,-2.56 -1.648,5.124 -5.124,7.87 -9.704,7.87 -4.482,0 -7.593,-2.564 -7.593,-6.405 0,-3.663 2.928,-6.316 12.173,-9.062 C 9.427,16.29 15.377,10.34 15.377,0.641 c 0,-10.891 -8.238,-18.764 -23.336,-18.764 -12.631,0 -20.869,4.758 -20.869,9.154 0,2.288 1.099,5.124 2.287,6.864 4.579,-2.288 10.892,-3.57 16.566,-3.57 C -3.111,-5.675 0,-3.57 0,0" /></g><g
           transform="translate(660.4609,523.9216)"
           id="g46"><path
             id="path48"
             style="fill:#ffffff;fill-opacity:1;fill-rule:nonzero;stroke:none"
             d="m 0,0 h -8.604 v -29.927 c 0,-6.953 1.831,-9.245 6.588,-9.245 H 0 c 9.517,0 16.29,6.316 16.29,19.588 C 16.29,-6.316 9.517,0 0,0 m -5.033,-51.617 c -12.907,0 -18.855,6.316 -18.855,20.594 V 12.449 H 0.824 c 17.661,0 30.84,-12.173 30.84,-32.033 0,-19.86 -13.179,-32.033 -31.392,-32.033 z" /></g><g
           transform="translate(707.3535,472.3049)"
           id="g50"><path
             id="path52"
             style="fill:#ffffff;fill-opacity:1;fill-rule:nonzero;stroke:none"
             d="m 0,0 c -2.288,0 -3.294,0.823 -3.294,2.564 v 60.95 c 3.022,0.823 6.498,1.282 11.167,1.282 2.746,0 4.117,-1.006 4.117,-3.201 L 11.99,0 Z" /></g><g
           transform="translate(762.4648,524.9277)"
           id="g54"><path
             id="path56"
             style="fill:#ffffff;fill-opacity:1;fill-rule:nonzero;stroke:none"
             d="m 0,0 c -9.058,0 -15.832,-6.494 -15.832,-18.667 0,-14.003 9.151,-22.517 19.401,-22.517 6.499,0 9.152,2.288 9.152,6.498 v 5.399 H 3.48 c -2.015,0 -3.204,1.282 -3.204,3.663 0,2.746 0.458,5.31 1.006,7.504 h 21.875 c 3.294,0 4.848,-1.371 4.848,-4.758 v -10.615 c 0,-11.074 -7.411,-20.229 -25.348,-20.229 -18.854,0 -33.866,13.637 -33.866,34.779 0,19.219 13.272,31.481 31.485,31.481 11.991,0 21.231,-5.488 25.717,-12.627 0.731,-1.189 0.916,-2.016 0.916,-3.112 0,-1.192 -0.823,-2.381 -2.104,-3.293 C 22.241,-8.328 17.755,-9.609 13.913,-9.792 11.35,-3.752 6.592,0 0,0" /></g><g
           transform="translate(807.3486,472.3049)"
           id="g58"><path
             id="path60"
             style="fill:#ffffff;fill-opacity:1;fill-rule:nonzero;stroke:none"
             d="m 0,0 c -2.288,0 -3.294,0.823 -3.294,2.564 v 60.95 c 3.023,0.823 6.498,1.282 11.167,1.282 2.746,0 4.117,-1.006 4.117,-3.201 L 11.99,0 Z" /></g><g
           transform="translate(851.4766,472.3049)"
           id="g62"><path
             id="path64"
             style="fill:#ffffff;fill-opacity:1;fill-rule:nonzero;stroke:none"
             d="m 0,0 c -2.288,0 -3.298,0.823 -3.298,2.564 v 49.053 h -15.098 c -1.922,0 -3.022,1.099 -3.022,3.569 0,2.657 0.459,6.04 1.007,8.879 h 47.774 c 1.741,0 2.654,-1.006 2.654,-3.293 V 51.617 H 11.896 V 0 Z" /></g><g
           transform="translate(911.4502,518.7983)"
           id="g66"><path
             id="path68"
             style="fill:#ffffff;fill-opacity:1;fill-rule:nonzero;stroke:none"
             d="M 0,0 -7.229,-22.606 H 7.322 Z m -27.088,-46.493 c -1.923,0 -3.387,1.281 -2.746,3.204 l 21.507,59.214 c 3.204,1.371 7.231,2.288 10.984,2.288 3.935,0 5.306,-1.006 6.498,-4.304 L 31.026,-46.493 H 18.213 c -2.56,0 -3.569,0.73 -4.117,2.381 l -3.112,9.698 h -21.875 l -3.841,-12.079 z" /></g><g
           transform="translate(968.0449,472.3049)"
           id="g70"><path
             id="path72"
             style="fill:#ffffff;fill-opacity:1;fill-rule:nonzero;stroke:none"
             d="m 0,0 c -14.002,0 -18.761,7.046 -18.761,21.6 v 41.914 c 3.019,0.823 6.498,1.282 11.074,1.282 2.835,0 4.118,-1.006 4.118,-3.201 V 21.6 c 0,-6.957 1.375,-9.244 6.132,-9.244 h 18.486 c 1.739,0 2.656,-1.007 2.656,-3.294 V 0 Z" /></g><g
           transform="translate(474.9922,434.0342)"
           id="g74"><path
             id="path76"
             style="fill:#ffffff;fill-opacity:1;fill-rule:nonzero;stroke:none"
             d="m 0,0 c 0,10.599 8.092,18.483 18.848,18.483 4.962,0 9.502,-1.618 12.688,-4.855 l -1.097,-1.15 C 27.202,15.611 23.233,16.865 18.901,16.865 9.138,16.865 1.774,9.555 1.774,0 c 0,-9.555 7.364,-16.865 17.127,-16.865 4.332,0 8.301,1.305 11.538,4.438 l 1.097,-1.147 C 28.35,-16.865 23.81,-18.483 18.848,-18.483 8.092,-18.483 0,-10.599 0,0" /></g><g
           transform="translate(512.4482,430.4843)"
           id="g78"><path
             id="path80"
             style="fill:#ffffff;fill-opacity:1;fill-rule:nonzero;stroke:none"
             d="M 0,0 H 22.086 C 21.667,6.368 17.124,11.015 11.016,11.015 4.855,11.015 0.365,6.368 0,0 M 23.703,-1.411 H -0.053 c 0.104,-7.047 5.169,-11.904 12.061,-11.904 3.55,0 6.891,1.305 8.981,4.019 l 1.097,-1.147 c -2.455,-2.923 -6.109,-4.439 -10.078,-4.439 -7.988,0 -13.732,5.693 -13.732,13.732 0,8.041 5.431,13.732 12.74,13.732 7.206,0 12.687,-5.586 12.687,-13.524 z" /></g><g
           transform="translate(556.8955,443.0661)"
           id="g82"><path
             id="path84"
             style="fill:#ffffff;fill-opacity:1;fill-rule:nonzero;stroke:none"
             d="m 0,0 v -1.722 h -0.47 c -6.317,0 -10.024,-4.23 -10.024,-11.174 v -14.41 h -1.724 v 27.098 h 1.671 V -6.734 C -8.98,-2.453 -5.324,0 0,0" /></g><g
           transform="translate(578.5225,417.4838)"
           id="g86"><path
             id="path88"
             style="fill:#ffffff;fill-opacity:1;fill-rule:nonzero;stroke:none"
             d="m 0,0 c -1.306,-1.254 -3.445,-1.881 -5.429,-1.881 -4.492,0 -6.891,2.716 -6.891,6.944 v 18.798 h -5.119 v 1.513 h 5.119 v 5.952 h 1.721 v -5.952 h 8.928 v -1.513 h -8.928 V 5.325 c 0,-3.654 1.828,-5.691 5.326,-5.691 1.669,0 3.237,0.574 4.386,1.618 z" /></g><path
           id="path90"
           style="fill:#ffffff;fill-opacity:1;fill-rule:nonzero;stroke:none"
           d="m 586.209,442.858 h 1.724 V 415.76 h -1.724 z m -0.887,8.77 c 0,0.942 0.782,1.724 1.722,1.724 0.942,0 1.725,-0.782 1.725,-1.671 0,-0.939 -0.783,-1.723 -1.725,-1.723 -0.94,0 -1.722,0.784 -1.722,1.67" /><path
           id="path92"
           style="fill:#ffffff;fill-opacity:1;fill-rule:nonzero;stroke:none"
           d="m 620.309,442.858 h 1.724 V 415.76 h -1.724 z m 2.559,8.823 c 0,-0.939 -0.784,-1.723 -1.723,-1.723 -0.941,0 -1.723,0.784 -1.723,1.67 0,0.942 0.782,1.724 1.723,1.724 0.939,0 1.723,-0.782 1.723,-1.671 m -15.926,2.976 c 1.986,0 4.074,-0.574 5.378,-1.828 l -0.886,-1.305 c -1.15,1.046 -2.716,1.62 -4.387,1.62 -3.55,0 -5.325,-1.985 -5.325,-5.693 v -4.593 h 8.927 v -1.514 h -8.927 V 415.76 H 600 v 25.584 h -5.118 v 1.514 H 600 v 4.804 c 0,4.228 2.504,6.995 6.942,6.995" /><g
           transform="translate(630.5605,429.3344)"
           id="g94"><path
             id="path96"
             style="fill:#ffffff;fill-opacity:1;fill-rule:nonzero;stroke:none"
             d="m 0,0 c 0,8.092 5.692,13.732 13.471,13.732 4.072,0 7.728,-1.567 10.024,-4.647 L 22.19,7.988 c -2.037,2.821 -5.22,4.126 -8.719,4.126 C 6.736,12.114 1.724,7.206 1.724,0 c 0,-7.257 5.012,-12.165 11.747,-12.165 3.499,0 6.682,1.305 8.719,4.126 l 1.305,-1.046 c -2.296,-3.08 -5.952,-4.647 -10.024,-4.647 C 5.692,-13.732 0,-8.092 0,0" /></g><g
           transform="translate(679.5,423.5908)"
           id="g98"><path
             id="path100"
             style="fill:#ffffff;fill-opacity:1;fill-rule:nonzero;stroke:none"
             d="m 0,0 v 5.639 h -9.867 c -5.9,0 -8.146,-2.506 -8.146,-5.898 0,-3.865 3.029,-6.267 8.094,-6.267 5.013,0 8.248,2.349 9.919,6.526 M 1.724,9.712 V -7.831 H 0.053 v 5.429 c -1.671,-3.393 -5.116,-5.586 -10.077,-5.586 -6.108,0 -9.71,3.082 -9.71,7.622 0,3.969 2.505,7.415 9.867,7.415 H 0 v 2.663 c 0,5.378 -2.87,8.197 -8.354,8.197 -3.916,0 -7.361,-1.461 -9.659,-3.654 l -0.939,1.252 c 2.61,2.455 6.527,3.968 10.651,3.968 6.475,0 10.025,-3.392 10.025,-9.763" /></g><g
           transform="translate(711.6777,421.2951)"
           id="g102"><path
             id="path104"
             style="fill:#ffffff;fill-opacity:1;fill-rule:nonzero;stroke:none"
             d="M 0,0 1.306,-1.046 C -0.99,-4.126 -4.646,-5.693 -8.719,-5.693 h -0.366 l -0.782,-2.714 c 2.715,-0.157 4.386,-1.775 4.386,-4.124 0,-2.559 -2.141,-4.23 -5.064,-4.23 -1.516,0 -2.821,0.419 -3.969,1.358 l 0.678,1.097 c 0.836,-0.731 2.037,-1.15 3.291,-1.15 2.087,0 3.603,1.044 3.603,2.976 0,1.724 -1.307,2.925 -3.603,2.925 h -0.939 l 1.094,3.967 c -6.891,0.731 -11.799,6.109 -11.799,13.627 0,8.093 5.692,13.732 13.47,13.732 4.073,0 7.729,-1.567 10.025,-4.647 L 0,16.027 c -2.036,2.821 -5.221,4.126 -8.719,4.126 -6.734,0 -11.747,-4.908 -11.747,-12.114 0,-7.257 5.013,-12.165 11.747,-12.165 3.498,0 6.683,1.305 8.719,4.126" /></g><g
           transform="translate(723.8076,448.1316)"
           id="g106"><path
             id="path108"
             style="fill:#ffffff;fill-opacity:1;fill-rule:nonzero;stroke:none"
             d="m 0,0 h -1.306 c 0.105,2.923 1.618,4.802 4.02,4.802 3.029,0 4.334,-3.601 6.632,-3.601 1.671,0 2.662,1.356 2.765,3.342 h 1.308 c -0.106,-2.768 -1.62,-4.7 -4.022,-4.7 -3.027,0 -4.332,3.603 -6.629,3.603 C 1.097,3.446 0.104,2.141 0,0 m 14.62,-24.541 v 5.64 H 4.75 c -5.898,0 -8.146,-2.507 -8.146,-5.899 0,-3.865 3.03,-6.267 8.095,-6.267 5.013,0 8.25,2.349 9.921,6.526 m 1.722,9.712 v -17.543 h -1.671 v 5.429 C 13,-30.335 9.555,-32.529 4.596,-32.529 c -6.11,0 -9.713,3.082 -9.713,7.623 0,3.968 2.507,7.414 9.867,7.414 h 9.87 v 2.663 c 0,5.378 -2.872,8.197 -8.354,8.197 -3.917,0 -7.364,-1.46 -9.662,-3.654 l -0.939,1.252 c 2.61,2.455 6.528,3.969 10.652,3.969 6.475,0 10.025,-3.393 10.025,-9.764" /></g><g
           transform="translate(773.3203,429.3344)"
           id="g110"><path
             id="path112"
             style="fill:#ffffff;fill-opacity:1;fill-rule:nonzero;stroke:none"
             d="m 0,0 c 0,7.206 -4.961,12.114 -11.592,12.114 -6.632,0 -11.591,-4.908 -11.591,-12.114 0,-7.204 4.959,-12.165 11.591,-12.165 C -4.961,-12.165 0,-7.204 0,0 m -24.906,0 c 0,8.041 5.692,13.732 13.314,13.732 7.674,0 13.314,-5.691 13.314,-13.732 0,-8.039 -5.64,-13.732 -13.314,-13.732 -7.622,0 -13.314,5.693 -13.314,13.732" /></g><g
           transform="translate(811.667,417.3775)"
           id="g114"><path
             id="path116"
             style="fill:#ffffff;fill-opacity:1;fill-rule:nonzero;stroke:none"
             d="M 0,0 C 10.807,0 17.698,6.998 17.698,16.657 17.698,26.316 10.807,33.311 0,33.311 H -12.218 V 0 Z M -13.993,34.931 H 0.104 c 11.591,0 19.372,-7.676 19.372,-18.274 0,-10.599 -7.781,-18.275 -19.372,-18.275 h -14.097 z" /></g><path
           id="path118"
           style="fill:#ffffff;fill-opacity:1;fill-rule:nonzero;stroke:none"
           d="m 839.935,442.858 h 1.724 V 415.76 h -1.724 z m -0.887,8.77 c 0,0.942 0.782,1.724 1.722,1.724 0.941,0 1.723,-0.782 1.723,-1.671 0,-0.939 -0.782,-1.723 -1.723,-1.723 -0.94,0 -1.722,0.784 -1.722,1.67" /><g
           transform="translate(875.4473,429.9083)"
           id="g120"><path
             id="path122"
             style="fill:#ffffff;fill-opacity:1;fill-rule:nonzero;stroke:none"
             d="m 0,0 c 0,6.84 -5.012,11.54 -11.802,11.54 -6.787,0 -11.746,-4.7 -11.746,-11.54 0,-6.838 4.959,-11.642 11.746,-11.642 C -5.012,-11.642 0,-6.838 0,0 m 1.671,12.95 v -24.488 c 0,-8.877 -4.283,-12.897 -12.792,-12.897 -4.961,0 -9.555,1.62 -12.165,4.386 l 0.99,1.305 c 2.768,-2.661 6.684,-4.124 11.122,-4.124 7.571,0 11.121,3.446 11.121,11.122 v 5.743 c -2.036,-4.438 -6.422,-7.206 -11.8,-7.206 -7.675,0 -13.418,5.482 -13.418,13.209 0,7.729 5.743,13.158 13.418,13.158 5.378,0 9.817,-2.768 11.853,-7.257 v 7.049 z" /></g><path
           id="path124"
           style="fill:#ffffff;fill-opacity:1;fill-rule:nonzero;stroke:none"
           d="m 888.727,442.858 h 1.724 V 415.76 h -1.724 z m -0.887,8.77 c 0,0.942 0.782,1.724 1.722,1.724 0.942,0 1.724,-0.782 1.724,-1.671 0,-0.939 -0.782,-1.723 -1.724,-1.723 -0.94,0 -1.722,0.784 -1.722,1.67" /><g
           transform="translate(914.8379,417.4838)"
           id="g126"><path
             id="path128"
             style="fill:#ffffff;fill-opacity:1;fill-rule:nonzero;stroke:none"
             d="m 0,0 c -1.305,-1.254 -3.445,-1.881 -5.429,-1.881 -4.491,0 -6.893,2.716 -6.893,6.944 v 18.798 h -5.116 v 1.513 h 5.116 v 5.952 h 1.724 v -5.952 h 8.928 v -1.513 h -8.928 V 5.325 c 0,-3.654 1.827,-5.691 5.325,-5.691 1.67,0 3.237,0.574 4.387,1.618 z" /></g><g
           transform="translate(939.7021,423.5908)"
           id="g130"><path
             id="path132"
             style="fill:#ffffff;fill-opacity:1;fill-rule:nonzero;stroke:none"
             d="m 0,0 v 5.639 h -9.867 c -5.899,0 -8.146,-2.506 -8.146,-5.898 0,-3.865 3.03,-6.267 8.095,-6.267 5.012,0 8.247,2.349 9.918,6.526 M 1.724,9.712 V -7.831 H 0.053 v 5.429 c -1.67,-3.393 -5.116,-5.586 -10.077,-5.586 -6.108,0 -9.71,3.082 -9.71,7.622 0,3.969 2.505,7.415 9.867,7.415 H 0 v 2.663 c 0,5.378 -2.869,8.197 -8.354,8.197 -3.916,0 -7.361,-1.461 -9.659,-3.654 l -0.939,1.252 c 2.61,2.455 6.527,3.968 10.651,3.968 6.475,0 10.025,-3.392 10.025,-9.763" /></g><path
           id="path134"
           style="fill:#ffffff;fill-opacity:1;fill-rule:nonzero;stroke:none"
           d="m 952.72,454.5 h 1.724 v -38.74 h -1.724 z" /><g
           transform="translate(280.7207,603.1558)"
           id="g136"><path
             id="path138"
             style="fill:#ffffff;fill-opacity:1;fill-rule:nonzero;stroke:none"
             d="m 0,0 h -99.484 c -9.123,0 -16.519,-7.396 -16.519,-16.519 v -46.248 h -0.001 v -93.736 c 0,-9.123 7.396,-16.519 16.519,-16.519 h 53.597 c 9.123,0 16.52,7.396 16.52,16.519 v 15.256 h 10e-4 v 63.055 c 0,9.123 7.395,16.519 16.518,16.519 46.254,0 64.243,-14.684 64.243,-69.749 0,-49.925 -22.026,-71.217 -62.407,-71.217 h -18.354 v 0 h -33.398 -53.238 -21.056 -0.837 c -5.212,0 -9.438,4.214 -9.461,9.42 v 84.036 c 0,9.123 -7.396,16.519 -16.52,16.519 h -53.597 c -9.124,0 -16.519,-7.396 -16.519,-16.519 v -93.736 -51.929 c 0,-5.227 4.237,-9.464 9.463,-9.464 h 77.173 31.354 113.801 c 84.799,0 140.231,38.179 140.231,137.663 C 138.029,-39.647 85.167,0 0,0" /></g><g
           transform="translate(63.2471,541.5676)"
           id="g140"><path
             id="path142"
             style="fill:#ffffff;fill-opacity:1;fill-rule:nonzero;stroke:none"
             d="m 0,0 h 53.597 c 9.124,0 16.519,7.396 16.519,16.519 v 28.55 c 0,9.123 -7.395,16.519 -16.519,16.519 H 0 c -9.124,0 -16.52,-7.396 -16.52,-16.519 V 16.519 C -16.52,7.396 -9.124,0 0,0" /></g></g></g></g></svg>
