<?xml version="1.0" encoding="utf-8"?>
<!-- Generator: Adobe Illustrator 21.1.0, SVG Export Plug-In . SVG Version: 6.00 Build 0)  -->
<svg version="1.0"
	 id="Camada_1" text-rendering="geometricPrecision" image-rendering="optimizeQuality" shape-rendering="geometricPrecision"
	 xmlns="http://www.w3.org/2000/svg" xmlns:xlink="http://www.w3.org/1999/xlink" x="0px" y="0px" viewBox="0 0 148.2 34.7"
	 style="enable-background:new 0 0 148.2 34.7;" xml:space="preserve">
<style type="text/css">
	.st0{fill:#3059A6;}
	.st1{fill:url(#SVGID_1_);}
	.st2{fill:url(#SVGID_2_);}
	.st3{fill:#3387C7;}
	.st4{fill:#2332A6;}
	.st5{fill:#606062;}
</style>
<g id="Camada_x0020_1">
	<g id="_2061417304720">
		<g>
			<path class="st0" d="M30.4,1.8l22.7,7.2L53,34.7l-30.8-8c1.8,0.3,3.7-0.2,5.1-0.9c1.8-0.9,3-2.4,3.1-4l0,0L30.4,1.8L30.4,1.8z"/>
			
				<linearGradient id="SVGID_1_" gradientUnits="userSpaceOnUse" x1="5752.5469" y1="-8142.0142" x2="5774.6069" y2="-7922.3442" gradientTransform="matrix(9.670085e-02 0 0 -9.670085e-02 -517.5893 -760.7098)">
				<stop  offset="0" style="stop-color:#059939"/>
				<stop  offset="1" style="stop-color:#055C24"/>
			</linearGradient>
			<path class="st1" d="M24.5,26.7l27.7,7.1l0.1-24.5L30.4,2.4v19.4l0,0c-0.1,1.6-1.4,3-3.1,4C26.5,26.2,25.5,26.6,24.5,26.7
				L24.5,26.7z"/>
			
				<linearGradient id="SVGID_2_" gradientUnits="userSpaceOnUse" x1="5783.3462" y1="-8023.6416" x2="5616.5063" y2="-8023.082" gradientTransform="matrix(9.670085e-02 0 0 -9.670085e-02 -517.5893 -760.7098)">
				<stop  offset="0" style="stop-color:#FFD412"/>
				<stop  offset="1" style="stop-color:#5C4C0B"/>
			</linearGradient>
			<path class="st2" d="M24.5,26.7l4.4,1.1l20-9.9L33.4,3.3l-2.9-0.9v19.4l0,0c-0.1,1.6-1.4,3-3.1,4C26.5,26.2,25.5,26.6,24.5,26.7z
				"/>
			<path class="st3" d="M30.4,6.3c5.5,0.9,9.5,4.4,9.5,8.6c0,4.4-4.4,8-10.2,8.7c0.3-0.5,0.6-1.1,0.6-1.7l0,0L30.4,6.3L30.4,6.3z"/>
			<path class="st0" d="M24.9,17.4V0l5.6,1.7v20.1l0,0c-0.1,1.6-1.4,3-3.1,4c-1.5,0.8-3.7,1.3-5.5,0.8c-0.7-0.2-1.3-0.5-1.8-0.9
				c-1-0.9-1.3-2.1-1.4-3.4c-0.5,0-0.9,0-1.4-0.1c-4.2-0.7-3.3-4.9-3-7.2c0-0.3,0.1-0.7,0.1-1c0.2-2.2,0.1-4-0.8-5.9
				c-1.1-0.1-2.2-0.1-3.2,0.2C7,8.8,6.3,11.6,6.3,13.7v20.4L0,31.8L0.7,9.2c0-1.5,0.6-3.1,2-4.3c1.1-1,2.6-1.6,4.3-1.7
				c2.6-0.1,4.7,1,6,2.6l0,0l0.4,0.5l0,0c0.3,0.4,0.5,0.8,0.7,1.2c0.6,0.1,1.2,0.3,1.7,0.5c2.9,1.3,4.2,4,4.4,6.3
				c0.1,1.4-0.1,2.8-0.4,4.2c-0.2,0.9-0.4,2-0.4,3.2c1-0.1,1.9-0.4,2.7-0.7C23.8,20.1,24.7,18.8,24.9,17.4L24.9,17.4z M18.6,21.7
				c0-1.2,0.3-2.3,0.5-3.3c0.3-1.3,0.5-2.7,0.4-4.1c0-0.4-0.1-0.8-0.2-1.2c-0.5-1.7-1.7-3.7-3.8-4.6c-0.3-0.1-0.7-0.3-1-0.3
				c0.8,1.9,0.8,3.7,0.7,5.8c0,0.3-0.1,0.7-0.1,1c-0.1,0.9-0.2,1.8-0.2,2.7c0,1.5,0.2,3.5,2.7,3.9C17.8,21.7,18.2,21.7,18.6,21.7
				L18.6,21.7z M12.5,6.3c-1.1-1.5-3-2.6-5.4-2.5C5.5,3.8,4.2,4.4,3.3,5.2C2,6.3,1.5,7.8,1.5,9.2L0.8,31.5l4.7,1.7V13.7
				c0-2.4,0.8-5.3,4.5-6.1c1.1-0.2,2.1-0.3,3.1-0.2C13,7,12.7,6.6,12.5,6.3L12.5,6.3z M19.4,22.2c0,1.2,0.3,2.4,1.2,3.1
				c0.4,0.3,0.9,0.6,1.4,0.8c1.6,0.4,3.5-0.1,4.8-0.7c1.6-0.8,2.7-2.1,2.8-3.5V2.1l-4-1.3v16.5l0,0c-0.1,1.7-1.2,3.1-3.1,4
				C21.6,21.8,20.5,22.1,19.4,22.2L19.4,22.2z"/>
		</g>
		<path class="st4" d="M67.1,13h2l2.1,9.2h-2.1L68.7,20h-4l-1.2,2.2h-2C61.4,22.2,67.1,13,67.1,13z M67.7,14.8l-2,3.5h2.7
			C68.4,18.4,67.7,14.8,67.7,14.8z"/>
		<path id="_x31_" class="st4" d="M76.7,14.6c-0.9,0-1.6,0.3-2,0.9c-0.4,0.6-0.7,1.3-0.9,2.1c0,0.1-0.1,0.3-0.1,0.4
			c0,0.1-0.1,0.3-0.1,0.4c0,0.3,0,0.6,0,0.9c0,0.3,0.1,0.5,0.3,0.8c0.2,0.2,0.4,0.4,0.6,0.4c0.3,0.1,0.5,0.1,0.8,0.1c0,0,0,0,0.1,0
			s0,0,0.1,0l3.2,0l-0.3,1.6h-3.3c-0.5,0-1,0-1.5-0.1c-0.5-0.1-0.9-0.3-1.2-0.7c-0.4-0.4-0.7-0.9-0.8-1.5c-0.1-0.6-0.1-1.2,0-1.8
			c0-0.1,0-0.3,0.1-0.4c0-0.1,0.1-0.3,0.1-0.4c0.4-1.4,1-2.5,1.8-3.2c0.8-0.7,1.9-1,3.3-1l3.2,0l-0.3,1.6L76.7,14.6L76.7,14.6z"/>
		<path id="_x32_" class="st4" d="M86,13h2.4l2.5,6.6l1.2-6.6h2l-1.8,9.2H90l-2.6-6.9l-1.3,6.9h-2C84.2,22.2,86,13,86,13z"/>
		<path id="_x33_" class="st4" d="M98.1,13h2l2.1,9.2h-2.1L99.7,20h-4l-1.2,2.2h-2C92.4,22.2,98.1,13,98.1,13z M98.7,14.8l-2,3.5
			h2.7C99.4,18.4,98.7,14.8,98.7,14.8z"/>
		<path id="_x34_" class="st4" d="M107.6,14.6c-0.9,0-1.6,0.3-2,0.9c-0.4,0.6-0.7,1.3-0.9,2.1c0,0.1-0.1,0.3-0.1,0.4
			c0,0.1-0.1,0.3-0.1,0.4c0,0.3,0,0.6,0,0.9c0,0.3,0.1,0.5,0.3,0.8c0.2,0.2,0.4,0.4,0.6,0.4c0.3,0.1,0.5,0.1,0.8,0.1c0,0,0,0,0.1,0
			s0,0,0.1,0l3.2,0l-0.3,1.6H106c-0.5,0-1,0-1.5-0.1c-0.5-0.1-0.9-0.3-1.2-0.7c-0.4-0.4-0.7-0.9-0.8-1.5c-0.1-0.6-0.1-1.2,0-1.8
			c0-0.1,0-0.3,0.1-0.4c0-0.1,0.1-0.3,0.1-0.4c0.4-1.4,1-2.5,1.8-3.2c0.8-0.7,1.9-1,3.3-1l3.2,0l-0.3,1.6L107.6,14.6L107.6,14.6z"/>
		<path id="_x35_" class="st4" d="M112.2,22.2h-2L112,13h2L112.2,22.2z"/>
		<path id="_x36_" class="st4" d="M116.5,16.2c-0.1,0.2-0.2,0.5-0.3,0.7c-0.1,0.2-0.1,0.5-0.2,0.7c0,0.2-0.1,0.5-0.1,0.7
			c0,0.2,0,0.5,0,0.7c0,0.4,0.1,0.7,0.3,1c0.2,0.3,0.4,0.5,0.8,0.6c0.1,0.1,0.3,0.1,0.4,0.1c0.2,0,0.3,0,0.5,0c0.2,0,0.3,0,0.5,0
			c0.2,0,0.3-0.1,0.5-0.1c0.4-0.1,0.8-0.3,1-0.6c0.3-0.3,0.5-0.6,0.7-1c0.1-0.2,0.2-0.4,0.3-0.7c0.1-0.2,0.1-0.5,0.2-0.7
			c0-0.2,0.1-0.5,0.1-0.7c0-0.2,0-0.5,0-0.7c0-0.4-0.1-0.7-0.3-1c-0.2-0.3-0.4-0.5-0.8-0.6c-0.1-0.1-0.3-0.1-0.4-0.1
			c-0.2,0-0.3,0-0.5,0c-0.2,0-0.3,0-0.5,0c-0.2,0-0.3,0.1-0.5,0.1c-0.4,0.1-0.8,0.3-1,0.6S116.7,15.8,116.5,16.2L116.5,16.2
			L116.5,16.2z M114.6,15.6c0.4-0.7,0.8-1.2,1.3-1.6c0.5-0.4,1.1-0.7,1.9-0.9c0.3-0.1,0.5-0.1,0.8-0.1c0.3,0,0.6-0.1,0.8-0.1
			c0.3,0,0.6,0,0.9,0c0.3,0,0.6,0.1,0.8,0.2c0.6,0.2,1.1,0.5,1.5,0.9c0.4,0.4,0.6,1,0.6,1.6c0,0.3,0,0.6,0,1c0,0.3-0.1,0.7-0.1,1
			c-0.1,0.4-0.2,0.7-0.3,1.1c-0.1,0.3-0.2,0.7-0.4,1c-0.3,0.7-0.8,1.2-1.3,1.7c-0.5,0.4-1.2,0.7-1.9,0.9c-0.3,0.1-0.6,0.1-0.9,0.1
			c-0.3,0-0.6,0-0.9,0c-0.3,0-0.5,0-0.8-0.1c-0.3,0-0.5-0.1-0.8-0.1c-0.7-0.2-1.2-0.5-1.5-0.9c-0.4-0.4-0.6-1-0.6-1.7
			c0-0.3,0-0.6,0-1c0-0.3,0.1-0.7,0.1-1.1c0.1-0.4,0.2-0.7,0.3-1.1C114.3,16.2,114.5,15.9,114.6,15.6L114.6,15.6L114.6,15.6z"/>
		<path id="_x37_" class="st4" d="M124.8,13h2.4l2.5,6.6l1.2-6.6h2l-1.8,9.2h-2.2l-2.6-6.9l-1.3,6.9h-2L124.8,13L124.8,13z"/>
		<path id="_x38_" class="st4" d="M136.9,13h2l2.1,9.2h-2.1l-0.4-2.2h-4l-1.2,2.2h-2L136.9,13L136.9,13z M137.5,14.8l-2,3.5h2.7
			L137.5,14.8z"/>
		<path id="_x39_" class="st4" d="M144.8,22.2c-0.6,0-1.1,0-1.6-0.1c-0.5-0.1-0.9-0.4-1.2-0.8c-0.3-0.4-0.4-0.8-0.4-1.3
			c0-0.5,0-1,0.1-1.5l1.1-5.5h1.9l-1,5c-0.2,0.9-0.2,1.5-0.1,2s0.7,0.7,1.7,0.7l2.3,0l-0.3,1.5L144.8,22.2L144.8,22.2z"/>
		<path class="st5" d="M65,27.5c0-1-0.8-1.8-1.8-1.8c-1,0-1.8,0.7-1.8,1.8c0,1.1,0.8,1.8,1.8,1.8C64.2,29.3,65,28.6,65,27.5z
			 M62,27.5c0-0.8,0.5-1.3,1.2-1.3c0.7,0,1.2,0.5,1.2,1.3c0,0.8-0.5,1.3-1.2,1.3C62.5,28.8,62,28.3,62,27.5z"/>
		<path id="_x31__1_" class="st5" d="M66.8,27.5c0,1.1,0.8,1.8,1.8,1.8c0.7,0,1.4-0.4,1.6-1h-0.7c-0.2,0.4-0.5,0.5-0.9,0.5
			c-0.7,0-1.2-0.5-1.2-1.3c0-0.8,0.5-1.3,1.2-1.3c0.4,0,0.8,0.2,0.9,0.5h0.7c-0.3-0.7-0.9-1.1-1.6-1.1
			C67.6,25.7,66.8,26.5,66.8,27.5L66.8,27.5z"/>
		<path id="_x32__1_" class="st5" d="M72.9,25.8H71v3.5h1.9v-0.5h-1.4v-1.1h1.2v-0.5h-1.2v-1h1.4V25.8L72.9,25.8z"/>
		<path id="_x33__1_" class="st5" d="M75.5,26.8c0,0.3-0.2,0.6-0.6,0.6h-0.6v-1.2h0.6C75.3,26.2,75.5,26.5,75.5,26.8z M73.7,25.8
			v3.5h0.6v-1.4h0.4l0.8,1.4h0.7l-0.9-1.5c0.6-0.1,0.8-0.6,0.8-1c0-0.6-0.4-1-1.2-1L73.7,25.8L73.7,25.8z"/>
		<path id="_x34__1_" class="st5" d="M76.8,26.2h0.9v3h0.6v-3h0.9v-0.5h-2.4L76.8,26.2L76.8,26.2z"/>
		<path id="_x35__1_" class="st5" d="M79.9,29.3h0.6v-3.5h-0.6V29.3z"/>
		<path id="_x36__1_" class="st5" d="M81.3,29.3h0.6v-1.5h1.2v-0.5h-1.2v-1h1.5v-0.5h-2.1C81.3,25.8,81.3,29.3,81.3,29.3z"/>
		<path id="_x37__1_" class="st5" d="M84,29.3h0.6v-3.5H84V29.3z"/>
		<path id="_x38__1_" class="st5" d="M85.2,27.5c0,1.1,0.8,1.8,1.8,1.8c0.7,0,1.4-0.4,1.6-1H88c-0.2,0.4-0.5,0.5-0.9,0.5
			c-0.7,0-1.2-0.5-1.2-1.3c0-0.8,0.5-1.3,1.2-1.3c0.4,0,0.8,0.2,0.9,0.5h0.7c-0.3-0.7-0.9-1.1-1.6-1.1C86,25.7,85.2,26.5,85.2,27.5
			L85.2,27.5z"/>
		<path id="_x39__1_" class="st5" d="M91.8,29.3h0.6l-1.3-3.5h-0.7l-1.3,3.5h0.6l0.3-0.7h1.5L91.8,29.3L91.8,29.3z M91.4,28.1h-1.1
			l0.6-1.6L91.4,28.1z"/>
		<path id="_x31_0" class="st5" d="M94.2,25.8H93v3.5h1.1c1.1,0,1.9-0.7,1.9-1.7C96,26.4,95.3,25.8,94.2,25.8L94.2,25.8z M93.6,28.8
			v-2.6h0.6c0.8,0,1.3,0.5,1.3,1.3c0,0.8-0.4,1.3-1.3,1.3L93.6,28.8L93.6,28.8z"/>
		<path id="_x31_1" class="st5" d="M100.1,27.5c0-1-0.8-1.8-1.8-1.8c-1,0-1.8,0.7-1.8,1.8c0,1.1,0.8,1.8,1.8,1.8
			C99.3,29.3,100.1,28.6,100.1,27.5z M97.1,27.5c0-0.8,0.5-1.3,1.2-1.3s1.2,0.5,1.2,1.3c0,0.8-0.5,1.3-1.2,1.3
			C97.6,28.8,97.1,28.3,97.1,27.5z"/>
		<path id="_x31_2" class="st5" d="M103.2,25.8H102v3.5h1.1c1.1,0,1.9-0.7,1.9-1.7C105,26.4,104.3,25.8,103.2,25.8L103.2,25.8z
			 M102.6,28.8v-2.6h0.6c0.8,0,1.3,0.5,1.3,1.3c0,0.8-0.4,1.3-1.3,1.3L102.6,28.8L102.6,28.8z"/>
		<path id="_x31_3" class="st5" d="M105.7,29.3h0.6v-3.5h-0.6V29.3z"/>
		<path id="_x31_4" class="st5" d="M108.7,25.7c-1,0-1.8,0.7-1.8,1.8c0,1.1,0.8,1.8,1.8,1.8c0.9,0,1.6-0.7,1.7-1.5v-0.4h-1.9v0.5
			h1.3c-0.1,0.6-0.5,1-1.1,1c-0.7,0-1.2-0.5-1.2-1.3c0-0.8,0.5-1.3,1.2-1.3c0.4,0,0.8,0.2,0.9,0.5h0.7
			C110.1,26.1,109.4,25.7,108.7,25.7L108.7,25.7z"/>
		<path id="_x31_5" class="st5" d="M111.1,29.3h0.6v-3.5h-0.6V29.3z"/>
		<path id="_x31_6" class="st5" d="M112.3,26.2h0.9v3h0.6v-3h0.9v-0.5h-2.4L112.3,26.2L112.3,26.2z"/>
		<path id="_x31_7" class="st5" d="M117.8,29.3h0.6l-1.3-3.5h-0.7l-1.3,3.5h0.6l0.3-0.7h1.5L117.8,29.3L117.8,29.3z M117.4,28.1
			h-1.1l0.6-1.6L117.4,28.1z"/>
		<path id="_x31_8" class="st5" d="M119.1,25.8v3.5h1.8v-0.5h-1.2v-3H119.1L119.1,25.8z"/>
		<path id="_x31_9" class="st5" d="M123.8,25.8h-1.1v3.5h1.1c1.1,0,1.9-0.7,1.9-1.7C125.7,26.4,125,25.8,123.8,25.8L123.8,25.8z
			 M123.3,28.8v-2.6h0.6c0.8,0,1.3,0.5,1.3,1.3c0,0.8-0.4,1.3-1.3,1.3L123.3,28.8L123.3,28.8z"/>
		<path id="_x32_0" class="st5" d="M129.7,27.5c0-1-0.8-1.8-1.8-1.8c-1,0-1.8,0.7-1.8,1.8c0,1.1,0.8,1.8,1.8,1.8
			C129,29.3,129.7,28.6,129.7,27.5z M126.8,27.5c0-0.8,0.5-1.3,1.2-1.3s1.2,0.5,1.2,1.3c0,0.8-0.5,1.3-1.2,1.3
			C127.3,28.8,126.8,28.3,126.8,27.5z"/>
		<path id="_x32_1" class="st5" d="M133.7,28.3c0,0.3-0.2,0.5-0.6,0.5h-0.8v-1.1h0.8C133.4,27.7,133.7,27.9,133.7,28.3L133.7,28.3z
			 M133.6,26.7c0,0.3-0.2,0.5-0.6,0.5h-0.7v-1h0.7C133.4,26.2,133.6,26.4,133.6,26.7z M134.3,28.3c0-0.4-0.3-0.8-0.7-0.9
			c0.3-0.1,0.6-0.4,0.6-0.8c0-0.5-0.4-0.9-1.1-0.9h-1.3v3.5h1.4C133.8,29.3,134.3,28.8,134.3,28.3L134.3,28.3z"/>
		<path id="_x32_2" class="st5" d="M136.8,26.8c0,0.3-0.2,0.6-0.6,0.6h-0.6v-1.2h0.6C136.6,26.2,136.8,26.5,136.8,26.8z M135,25.8
			v3.5h0.6v-1.4h0.4l0.8,1.4h0.7l-0.9-1.5c0.6-0.1,0.8-0.6,0.8-1c0-0.6-0.4-1-1.2-1L135,25.8L135,25.8z"/>
		<path id="_x32_3" class="st5" d="M140.6,29.3h0.6l-1.3-3.5h-0.7l-1.3,3.5h0.6l0.3-0.7h1.5L140.6,29.3L140.6,29.3z M140.2,28.1
			h-1.1l0.6-1.6L140.2,28.1z"/>
		<path id="_x32_4" class="st5" d="M144.2,28.3c0-1.3-1.9-0.8-1.9-1.6c0-0.3,0.3-0.5,0.6-0.5c0.4,0,0.6,0.2,0.6,0.5h0.6
			c-0.1-0.6-0.5-1-1.2-1c-0.7,0-1.2,0.4-1.2,1c0,1.3,1.9,0.7,1.9,1.6c0,0.3-0.2,0.5-0.6,0.5c-0.4,0-0.6-0.2-0.6-0.5h-0.6
			c0,0.6,0.5,1,1.2,1C143.8,29.3,144.2,28.8,144.2,28.3L144.2,28.3z"/>
		<path id="_x32_5" class="st5" d="M145,29.3h0.6v-3.5H145V29.3z"/>
		<path id="_x32_6" class="st5" d="M146.4,25.8v3.5h1.8v-0.5H147v-3H146.4L146.4,25.8z"/>
	</g>
</g>
</svg>
